<svg xmlns="http://www.w3.org/2000/svg" viewBox="2 90 247 70" fill="none">
<path d="M 18.66,92.49 L 15.82,101.77 H 12.86 L 14.12,97.43 L 11.38,100.91 H 9.97 L 8.52,97.46 L 7.23,101.77 H 4.28 L 7.21,92.49 H 9.89 L 11.89,97.61 L 16.06,92.49 H 18.66 Z" fill="#F65472"/>
<path d="M 28.76,99.89 H 24.89 L 23.84,101.77 H 20.35 L 26.52,92.49 H 29.79 L 32.15,101.77 H 28.97 L 28.76,99.89 Z M 28.33,97.51 L 27.89,94.94 L 26.32,97.51 H 28.33 Z" fill="#F65472"/>
<path d="M 36.72,92.49 H 41.35 C 44.69,92.49 46.55,94.09 46.55,96.62 C 46.55,99.79 44.15,101.77 40.62,101.77 H 34.91 L 36.72,92.49 Z M 40.37,99.36 C 42.31,99.36 43.22,97.96 43.22,96.48 C 43.22,95.3 42.43,94.71 40.96,94.71 H 39.38 L 38.39,99.36 H 40.37 Z" fill="#F65472"/>
<path d="M 50.69,92.49 H 53.91 L 52.09,101.77 H 48.88 L 50.69,92.49 Z" fill="#F65472"/>
<path d="M 56.03,101.09 L 57.08,98.81 C 58.21,99.42 59.48,99.74 60.82,99.74 C 61.77,99.74 62.33,99.49 62.33,99.08 C 62.33,98.15 57.91,98.79 57.91,96.01 C 57.91,93.91 59.78,92.31 63.11,92.31 C 64.62,92.31 65.89,92.61 66.85,93.16 L 65.88,95.39 C 65.02,94.88 64.01,94.62 62.91,94.62 C 61.83,94.62 61.28,95.01 61.28,95.38 C 61.28,96.35 65.72,95.66 65.72,98.35 C 65.72,100.39 63.79,101.94 60.52,101.94 C 58.77,101.94 57.14,101.58 56.03,101.09 Z" fill="#F65472"/>
<path d="M 67.66,97.81 C 67.66,94.61 70.09,92.31 73.72,92.31 C 76.84,92.31 78.73,94.08 78.73,96.61 C 78.73,99.81 76.3,101.94 72.67,101.94 C 69.55,101.94 67.66,100.17 67.66,97.81 Z M 75.4,96.78 C 75.4,95.65 74.63,94.83 73.28,94.83 C 71.46,94.83 70.49,96.31 70.49,97.72 C 70.49,98.85 71.26,99.67 72.61,99.67 C 74.43,99.67 75.4,98.33 75.4,96.78 Z" fill="#F65472"/>
<path d="M 92.72,92.49 L 90.62,101.77 H 87.94 L 84.89,97.19 L 83.89,101.77 H 80.74 L 82.84,92.49 H 85.52 L 88.57,97.07 L 89.57,92.49 H 92.72 Z" fill="#F65472"/>
<path d="M 20.93,115.12 C 19.47,115.12 18.98,116.22 18.58,117.08 C 17.31,115.98 15.52,115.31 12.31,115.31 C 6.64,115.31 4.51,118.31 4.51,120.25 C 4.51,122.63 6.01,124.28 8.87,125.02 C 6.38,125.92 5.18,126.78 5.18,128.44 C 5.18,129.97 6.28,131.16 9.21,131.32 L 14.61,131.63 C 17.88,131.81 18.09,132.86 18.09,133.72 C 18.09,135.49 16.08,136.58 12.11,136.58 C 8.07,136.58 7.21,135.31 7.21,134.01 C 7.21,133.56 7.45,132.94 7.45,132.61 C 7.45,131.83 6.38,131.71 5.81,131.71 C 4.51,131.71 3.87,132.78 3.87,133.96 C 3.87,136.12 6.12,138.15 11.82,138.15 C 17.88,138.15 20.19,135.13 20.19,132.13 C 20.19,129.48 18.66,127.38 13.87,127.38 H 9.98 C 8.71,127.38 8.17,127.11 8.17,126.47 C 8.17,126.02 8.62,125.48 9.21,125.15 C 10.02,125.36 10.78,125.44 11.73,125.44 C 16.11,125.44 18.72,123.5 18.72,120.21 C 18.72,119.22 18.41,118.36 17.83,117.62 C 18.16,117.17 18.53,116.77 18.93,116.77 C 19.71,116.77 19.39,118.48 20.96,118.48 C 21.98,118.48 22.43,117.53 22.43,116.72 C 22.43,115.86 21.79,115.12 20.93,115.12 Z M 11.73,123.5 C 9.66,123.5 9.07,121.71 9.07,119.92 C 9.07,118.26 9.83,117.08 11.52,117.08 C 13.36,117.08 14.17,118.69 14.17,120.43 C 14.17,122.08 13.31,123.5 11.73,123.5 Z" fill="#69CFED"/>
<path d="M 31.29,115.31 C 24.81,115.31 22.3,118.81 22.3,122.75 C 22.3,127.19 25.02,130.12 30.97,130.12 C 37.17,130.12 39.82,126.96 39.82,122.44 C 39.82,118.16 37.06,115.31 31.29,115.31 Z M 31.34,128.06 C 28.73,128.06 28.19,125.18 28.19,122.02 C 28.19,119.27 28.89,117.29 31.08,117.29 C 33.61,117.29 34.15,119.97 34.15,123.08 C 34.15,126.08 33.39,128.06 31.34,128.06 Z" fill="#8CC63E"/>
<path d="M 51.85,115.31 C 45.37,115.31 42.86,118.81 42.86,122.75 C 42.86,127.19 45.59,130.12 51.54,130.12 C 57.73,130.12 60.39,126.96 60.39,122.44 C 60.39,118.16 57.62,115.31 51.85,115.31 Z M 51.9,128.06 C 49.29,128.06 48.75,125.18 48.75,122.02 C 48.75,119.27 49.45,117.29 51.64,117.29 C 54.17,117.29 54.71,119.97 54.71,123.08 C 54.71,126.08 53.95,128.06 51.9,128.06 Z" fill="#9A50A5"/>
<path d="M 81.48,124.73 V 106 H 80.72 L 73.08,106.95 V 109.21 L 74.26,109.37 C 75.26,109.51 75.42,109.86 75.42,111.23 V 117.08 C 74.23,116.01 72.68,115.15 70.12,115.15 C 65.28,115.15 62.92,118.18 62.92,123.08 C 62.92,127.47 65.12,130.12 69.45,130.12 C 71.81,130.12 73.68,129.12 75.21,127.75 L 75.61,129.73 L 83.46,129.33 V 127.11 L 82.65,127.01 C 81.58,126.88 81.48,126.46 81.48,124.73 Z M 72.42,127.27 C 70.01,127.27 68.81,125.17 68.81,122.01 C 68.81,119.01 70.09,117.36 72.31,117.36 C 74.41,117.36 75.43,118.73 75.43,121.49 V 125.92 C 74.72,126.73 73.71,127.27 72.42,127.27 Z" fill="#F07F1B"/>
<path d="M 112.17,126.29 V 120.14 C 112.17,116.88 110.38,115.31 107.11,115.31 C 104.5,115.31 102.89,116.78 101.72,118.43 L 101.08,116.07 L 93.61,117.24 V 119.34 L 94.66,119.5 C 95.42,119.61 95.72,119.91 95.72,121.01 V 126.03 C 95.72,127.18 95.32,127.62 93.61,127.73 V 129.71 H 103.73 V 127.73 C 102.02,127.57 101.62,127.18 101.62,126.03 V 120.91 C 102.26,119.35 103.53,117.98 104.95,117.98 C 106.42,117.98 107.01,118.89 107.01,120.73 V 126.03 C 107.01,127.13 106.61,127.62 105.39,127.73 V 129.71 H 114.29 V 127.73 C 112.57,127.62 112.17,127.27 112.17,126.29 Z" fill="#F65472"/>
<path d="M 124.12,115.31 C 118.18,115.31 115.92,118.91 115.92,122.61 C 115.92,126.94 118.67,130.02 123.97,130.02 C 127.19,130.02 129.41,128.65 130.68,126.62 L 129.31,125.52 C 128.21,126.99 126.89,127.7 125.23,127.7 C 122.31,127.7 121.36,125.5 121.36,122.67 H 131.41 C 131.41,118.91 129.52,115.31 124.12,115.31 Z M 121.42,120.91 C 121.52,118.58 122.33,117.16 123.86,117.16 C 125.52,117.16 126.11,118.77 126.11,120.91 H 121.42 Z" fill="#69CFED"/>
<path d="M 138.62,112.42 C 141.42,112.42 141.87,110.06 141.87,109.1 C 141.87,107.63 140.72,106.26 138.67,106.26 C 136.21,106.26 135.11,107.87 135.11,109.34 C 135.11,110.95 136.21,112.42 138.62,112.42 Z" fill="#8CC63E"/>
<path d="M 141.26,126.03 V 115.6 H 140.3 L 133.31,116.6 V 118.7 L 134.41,118.91 C 135.17,119.07 135.47,119.42 135.47,120.64 V 126.03 C 135.47,127.18 134.93,127.62 133.22,127.73 V 129.71 H 143.81 V 127.73 C 142.02,127.62 141.26,127.27 141.26,126.03 Z" fill="#8CC63E"/>
<path d="M 162.06,112.32 C 160.6,112.32 160.11,113.41 159.71,114.27 C 158.44,113.18 156.65,112.51 153.44,112.51 C 147.77,112.51 146.24,115.51 146.24,117.45 C 146.24,119.83 147.74,121.48 150.6,122.22 C 148.11,123.12 146.91,123.98 146.91,125.64 C 146.91,127.17 148.01,128.36 150.94,128.52 L 156.34,128.83 C 159.61,129.01 159.82,130.06 159.82,130.92 C 159.82,132.69 157.81,133.78 153.84,133.78 C 149.8,133.78 148.94,132.51 148.94,131.21 C 148.94,130.76 149.18,130.14 149.18,129.81 C 149.18,129.03 148.11,128.91 147.54,128.91 C 146.24,128.91 145.6,129.98 145.6,131.16 C 145.6,133.32 147.85,135.35 153.55,135.35 C 159.61,135.35 162.88,132.91 162.88,128.97 C 162.88,126.32 160.41,124.58 156.6,124.58 H 152.71 C 151.44,124.58 150.9,124.31 150.9,123.67 C 150.9,123.22 151.35,122.68 151.94,122.35 C 152.75,122.56 153.51,122.64 154.46,122.64 C 158.84,122.64 161.45,120.7 161.45,117.41 C 161.45,116.42 161.14,115.56 160.56,114.82 C 160.89,114.37 161.26,113.97 161.66,113.97 C 162.44,113.97 162.12,115.68 163.69,115.68 C 164.71,115.68 165.16,114.73 165.16,113.92 C 165.16,113.06 164.52,112.32 162.06,112.32 Z M 153.46,120.7 C 151.39,120.7 150.8,118.91 150.8,117.12 C 150.8,115.46 151.56,114.28 153.25,114.28 C 155.09,114.28 155.9,115.89 155.9,117.63 C 155.9,119.28 155.04,120.7 153.46,120.7 Z" fill="#9A50A5"/>
<path d="M 183.72,126.03 V 120.14 C 183.72,116.88 181.93,115.31 178.81,115.31 C 176.25,115.31 174.78,116.63 173.36,118.39 V 106.41 H 172.31 L 165.42,107.51 V 109.61 L 166.69,109.82 C 167.38,109.93 167.63,110.28 167.63,111.38 V 126.03 C 167.63,127.18 167.19,127.62 165.47,127.73 V 129.71 H 175.12 V 127.73 C 173.75,127.57 173.35,127.18 173.35,126.03 V 120.73 C 174.11,119.17 175.28,117.9 176.6,117.9 C 177.87,117.9 178.56,118.81 178.56,120.65 V 126.04 C 178.56,127.14 178.11,127.63 176.79,127.74 V 129.72 H 186.44 V 127.74 C 184.39,127.62 183.72,127.27 183.72,126.03 Z" fill="#F07F1B"/>
<path d="M 198.44,115.31 C 196.29,115.31 194.68,116.27 193.21,117.64 V 106.41 H 192.26 L 185.22,107.51 V 109.61 L 186.49,109.82 C 187.25,109.93 187.5,110.33 187.5,111.43 V 130.12 H 189.34 L 192.19,127.61 C 193.85,129.12 195.69,130.03 198.25,130.03 C 203.31,130.03 204.97,126.19 204.97,122.3 C 204.97,117.98 202.77,115.31 198.44,115.31 Z M 196.92,127.59 C 195.13,127.59 193.86,126.22 193.86,123.36 V 119.19 C 194.72,118.19 195.81,117.5 197.13,117.5 C 199.33,117.5 200.34,119.44 200.34,122.55 C 200.34,125.55 199.25,127.59 196.92,127.59 Z" fill="#F65472"/>
<path d="M 216.79,115.31 C 210.31,115.31 207.8,118.81 207.8,122.75 C 207.8,127.19 210.53,130.12 216.48,130.12 C 222.67,130.12 225.33,126.96 225.33,122.44 C 225.33,118.16 222.56,115.31 216.79,115.31 Z M 216.84,128.06 C 214.23,128.06 213.69,125.18 213.69,122.02 C 213.69,119.27 214.39,117.29 216.58,117.29 C 219.11,117.29 219.65,119.97 219.65,123.08 C 219.65,126.08 218.89,128.06 216.84,128.06 Z" fill="#69CFED"/>
<path d="M 241.59,115.31 C 238.98,115.31 237.22,117.1 236.41,119.46 L 235.5,115.71 L 228.72,116.93 V 118.91 L 229.77,119.12 C 230.53,119.28 230.83,119.63 230.83,120.73 V 126.03 C 230.83,127.18 230.39,127.62 228.67,127.73 V 129.71 H 238.84 V 127.73 C 236.95,127.57 236.36,127.18 236.36,126.03 V 122.71 C 236.67,120.2 237.84,118.41 238.94,118.41 C 239.99,118.41 239.83,120.07 241.62,120.07 C 243.23,120.07 244.23,118.92 244.23,117.5 C 244.23,116.22 243.13,115.31 241.59,115.31 Z" fill="#8CC63E"/>
<path d="M 93.96,149.69 H 97.84 L 96.4,155.86 C 94.71,157.06 92.41,157.71 89.96,157.71 C 84.91,157.71 82.98,154.59 83.39,150.91 C 83.91,146.24 87.21,142.19 92.97,142.19 C 96.09,142.19 98.18,143.31 99.18,145.21 L 95.88,147.93 C 95.07,146.56 93.97,146.23 92.62,146.23 C 89.62,146.23 88.22,148.71 88.22,151.12 C 88.14,153.01 89.09,154.43 91.31,154.43 C 91.89,154.43 92.44,154.33 93.02,154.11 L 93.96,149.69 Z" fill="#69CFED"/>
<path d="M 112.71,154.71 H 106.71 L 105.08,156.97 H 101.09 L 109.48,142.41 H 114.91 L 117.51,156.97 H 112.99 L 112.71,154.71 Z M 112.21,151.45 L 111.52,146.91 L 108.76,151.45 H 112.21 Z" fill="#69CFED"/>
<path d="M 127.81,145.91 H 123.21 L 123.89,142.41 H 137.68 L 137,145.91 H 132.4 L 129.92,156.97 H 125.32 L 127.81,145.91 Z" fill="#69CFED"/>
<path d="M 156.18,142.41 L 152.96,156.97 H 148.36 L 149.58,151.61 H 145.3 L 144.08,156.97 H 139.18 L 142.4,142.41 H 147.3 L 146.13,147.57 H 150.41 L 151.58,142.41 H 156.18 Z" fill="#69CFED"/>
<path d="M 166.42,145.79 L 165.97,147.92 H 172.48 L 171.72,151.13 H 165.21 L 164.71,153.59 H 172.46 L 171.46,156.97 H 160.13 L 162.62,142.41 H 173.95 L 173.21,145.79 H 166.42 Z" fill="#69CFED"/>
<path d="M 188.42,152.91 L 191.22,156.61 H 186.62 L 184.26,153.37 H 183.21 L 182.45,156.61 H 177.85 L 181.07,142.41 H 187.72 C 191.76,142.41 193.42,144.41 193.42,147.02 C 193.42,149.68 191.81,151.85 188.42,152.91 Z M 186.71,145.91 H 185.24 L 184.14,150.21 H 185.93 C 187.87,150.21 188.73,149.11 188.73,147.74 C 188.73,146.61 187.97,145.91 186.71,145.91 Z" fill="#69CFED"/>
<path d="M 200.21,142.41 H 204.1 L 200.88,156.61 H 196.6 L 200.21,142.41 Z" fill="#69CFED"/>
<path d="M 226.09,142.41 L 222.48,156.97 H 218.59 L 214.21,149.93 L 212.55,156.97 H 208.38 L 209.99,142.41 H 213.88 L 218.62,149.93 L 220.28,142.41 H 226.09 Z" fill="#69CFED"/>
<path d="M 240.62,149.11 H 245.16 L 243.51,155.56 C 241.72,156.89 239.62,157.61 236.96,157.61 C 231.9,157.61 230.24,154.34 230.65,150.81 C 231.17,146.38 234.24,142.41 240.01,142.41 C 243.12,142.41 244.96,143.56 246.13,145.28 L 243.02,147.93 C 242.07,146.66 240.92,146.33 239.55,146.33 C 236.55,146.33 235.45,148.71 235.45,150.93 C 235.37,152.72 236.18,154.28 238.4,154.28 C 238.94,154.28 239.49,154.18 240.03,153.97 L 240.62,149.11 Z" fill="#69CFED"/>
<path d="M 40.76,144.94 C 32.11,144.41 27.51,138.22 26.34,135.02 C 25.61,132.88 29.68,132.19 30.24,133.93 C 32.06,139.68 36.63,141.71 40.81,141.71 C 47.29,141.71 50.27,138.76 51.41,134.72 C 52.01,132.46 55.42,133.55 54.71,135.88 C 53.13,141.18 47.92,145.37 40.76,144.94 Z" fill="#F65472"/>
</svg>